<?xml version="1.0" standalone="no"?>
<!DOCTYPE svg PUBLIC "-//W3C//DTD SVG 20010904//EN"
 "http://www.w3.org/TR/2001/REC-SVG-20010904/DTD/svg10.dtd">
<svg version="1.0" xmlns="http://www.w3.org/2000/svg"
 width="508.000000pt" height="971.000000pt" viewBox="0 0 508.000000 971.000000"
 preserveAspectRatio="xMidYMid meet">
<metadata>
Created by potrace 1.16, written by Peter Selinger 2001-2019
</metadata>
<g transform="translate(0.000000,971.000000) scale(0.100000,-0.100000)"
fill="#000000" stroke="none">
<path d="M914 9368 c-86 -9 -138 -25 -218 -65 -166 -84 -308 -284 -347 -487
-6 -32 -9 -1500 -9 -3968 0 -4299 -4 -3992 59 -4147 45 -111 79 -161 165 -246
114 -112 212 -166 360 -197 36 -7 529 -10 1644 -9 1728 3 1637 0 1762 57 85
39 159 92 230 164 120 122 184 267 201 450 13 152 12 7816 -2 7899 -40 249
-211 448 -454 528 l-80 26 -1625 1 c-894 1 -1653 -2 -1686 -6z m455 -159 c35
-12 37 -20 45 -126 3 -43 13 -87 25 -111 22 -43 80 -98 119 -113 38 -15 1915
-12 1964 3 90 27 154 121 159 233 3 81 7 91 35 104 39 18 436 15 507 -4 164
-43 288 -155 341 -309 l21 -61 0 -3985 c0 -3899 0 -3986 -19 -4043 -28 -84
-110 -202 -181 -260 -62 -49 -156 -99 -212 -111 -47 -11 -3084 -15 -3183 -5
-204 20 -386 175 -456 389 -17 53 -18 222 -20 3930 -1 2131 2 3931 6 4000 10
147 30 210 96 294 51 65 124 117 209 148 50 18 89 23 235 28 96 4 198 7 226 8
28 1 65 -3 83 -9z"/>
<path d="M4115 8993 c-12 -12 -15 -26 -12 -51 10 -58 20 -63 116 -60 l86 3 9
47 c13 75 10 78 -93 78 -70 0 -93 -4 -106 -17z"/>
<path d="M2367 8104 c-449 -69 -817 -292 -1110 -669 -125 -162 -244 -438 -283
-660 -25 -139 -26 -428 -1 -542 44 -204 110 -373 202 -512 20 -29 33 -56 29
-60 -3 -3 -73 -6 -156 -6 -132 0 -152 -2 -162 -17 -7 -11 -7 -21 -1 -27 11
-10 1172 -15 2532 -12 696 2 784 4 798 18 33 32 12 38 -148 41 -86 1 -157 6
-157 10 0 4 16 30 36 57 70 98 128 238 176 423 33 126 33 129 32 352 0 194 -3
239 -23 330 -54 250 -180 507 -351 715 -182 220 -451 406 -717 494 -133 44
-164 51 -296 66 -148 18 -283 18 -400 -1z m578 -88 c150 -39 320 -114 447
-197 193 -127 389 -338 516 -555 62 -106 140 -305 162 -413 44 -218 44 -477 1
-676 -19 -83 -93 -321 -105 -332 -11 -11 -64 10 -105 42 -60 48 -99 53 -184
26 -38 -13 -70 -21 -71 -19 -2 1 -6 108 -9 236 -5 217 -5 233 11 227 129 -55
207 -38 262 58 24 41 30 64 30 110 0 32 -5 68 -11 80 -6 12 -97 106 -202 208
l-192 186 -5 249 c-5 267 -8 281 -62 331 -38 36 -73 43 -206 43 -142 0 -166
-8 -218 -74 l-28 -35 -131 127 c-151 148 -199 177 -290 176 -107 0 -121 -11
-471 -360 -177 -175 -439 -435 -583 -578 -144 -142 -267 -269 -272 -283 -27
-72 13 -195 80 -240 46 -31 116 -40 169 -21 l42 16 0 -214 c0 -184 -2 -214
-15 -214 -8 0 -15 4 -15 8 0 15 -49 32 -91 32 -48 0 -103 -27 -176 -86 -30
-25 -58 -43 -61 -40 -26 27 -104 263 -128 391 -29 151 -26 442 5 588 48 227
134 415 275 602 81 108 251 277 361 359 165 122 418 229 618 261 56 9 109 18
117 20 8 2 101 2 205 1 180 -4 197 -6 330 -40z m-302 -298 c19 -13 261 -246
538 -518 277 -272 534 -524 572 -561 l67 -66 0 -57 c0 -53 -3 -61 -34 -92 -45
-45 -84 -45 -138 -3 -22 18 -262 253 -533 524 -272 271 -508 498 -524 505 -17
7 -43 9 -58 6 -19 -5 -177 -157 -488 -469 -254 -254 -485 -490 -515 -523 -69
-77 -124 -100 -167 -68 -43 32 -65 69 -70 116 -6 56 11 91 69 142 24 21 275
269 558 552 310 309 529 519 550 529 48 21 128 14 173 -17z m728 -184 c42 -38
51 -71 54 -203 2 -69 1 -154 -3 -188 l-7 -62 -182 180 c-120 117 -183 187
-183 200 0 35 33 79 65 88 16 4 76 7 132 6 86 -1 106 -4 124 -21z m-669 -288
c175 -163 768 -762 792 -799 15 -22 19 -64 27 -259 5 -128 6 -299 2 -381 l-6
-147 -961 2 -961 3 1 325 c0 179 4 355 8 391 l7 65 464 467 c255 257 469 467
474 467 6 0 75 -60 153 -134z m-1229 -1362 l47 -16 0 -97 0 -98 -77 -7 c-42
-3 -97 -6 -124 -6 -51 0 -42 -9 -109 104 l-20 34 102 51 c56 28 109 51 118 51
9 0 37 -7 63 -16z m2367 -59 c27 -13 52 -29 55 -35 4 -6 -4 -35 -16 -65 l-23
-55 -127 0 -128 0 -6 54 c-10 80 -6 89 50 108 73 25 136 23 195 -7z"/>
<path d="M2483 7041 c-31 -20 -36 -28 -48 -89 -5 -24 -13 -34 -33 -38 -75 -18
-177 -106 -207 -178 -56 -134 -3 -313 114 -383 30 -18 81 -38 115 -46 50 -11
62 -17 67 -38 11 -37 10 -127 -1 -134 -5 -3 -34 11 -64 31 -81 54 -119 59
-185 27 -39 -19 -57 -34 -67 -59 -42 -101 67 -226 219 -249 44 -7 46 -9 52
-46 13 -74 103 -115 163 -73 26 18 52 64 52 92 0 16 9 21 43 26 24 4 69 22 99
41 178 111 199 371 43 513 -49 45 -143 92 -184 92 -9 0 -22 5 -29 12 -12 12
-17 90 -7 100 3 3 34 -3 68 -14 88 -28 142 -20 184 26 27 29 33 44 33 79 0 77
-58 137 -172 177 -54 19 -59 24 -74 75 -20 65 -116 95 -181 56z m100 -63 c10
-7 21 -33 25 -58 7 -44 8 -45 69 -66 70 -24 137 -65 152 -92 14 -26 -21 -82
-51 -82 -13 0 -52 9 -86 20 -124 39 -230 19 -264 -48 -13 -27 -14 -40 -6 -64
14 -38 94 -91 173 -113 266 -75 360 -284 209 -464 -33 -40 -86 -67 -146 -76
-43 -6 -46 -9 -51 -42 -8 -44 -23 -63 -53 -63 -25 0 -37 18 -48 71 -5 24 -12
27 -59 33 -144 18 -238 116 -175 183 28 30 53 29 95 -3 49 -37 96 -54 153 -54
127 0 200 47 200 127 0 72 -43 108 -213 173 -158 61 -215 102 -243 175 -33 89
2 208 79 265 23 17 67 38 98 47 l57 16 6 57 c4 32 10 60 13 64 11 10 48 7 66
-6z"/>
<path d="M2270 5409 c-149 -30 -206 -199 -114 -341 35 -55 74 -72 170 -73 71
0 85 3 122 27 118 79 129 251 21 343 -54 45 -121 60 -199 44z m119 -97 c45
-33 64 -69 64 -116 0 -55 -23 -93 -71 -113 -121 -50 -227 71 -165 190 33 64
114 82 172 39z"/>
<path d="M2926 5309 l-74 -111 -71 106 c-58 85 -76 106 -95 106 -57 0 -56 4
-56 -211 0 -189 1 -199 20 -209 12 -6 30 -8 40 -5 18 6 20 16 20 131 0 68 3
124 8 124 4 0 19 -19 34 -43 15 -23 43 -60 62 -82 l36 -40 22 27 c13 14 43 55
68 90 l45 63 2 -110 c4 -150 6 -157 46 -153 l32 3 3 197 c2 168 0 198 -14 212
-33 33 -51 20 -128 -95z"/>
<path d="M3295 5411 l-110 -6 0 -205 0 -205 135 -3 c147 -3 175 5 164 45 -7
26 -27 31 -126 34 -42 1 -82 5 -88 9 -8 5 -10 21 -5 49 l7 41 94 0 c91 0 94 1
94 23 0 39 -18 47 -106 47 -90 0 -94 3 -94 66 l0 34 110 0 110 0 0 30 c0 31
-24 52 -57 48 -10 -1 -67 -4 -128 -7z"/>
<path d="M1952 5398 c-7 -7 -12 -42 -12 -85 l0 -73 -100 0 -100 0 0 68 c0 80
-8 95 -46 90 l-29 -3 -8 -180 c-9 -202 -5 -225 42 -225 35 0 41 13 41 95 l0
64 53 6 c28 4 74 5 101 3 l49 -3 -2 -76 c-3 -86 9 -106 52 -90 14 5 27 16 29
23 9 25 -4 373 -14 386 -13 15 -40 16 -56 0z"/>
<path d="M1277 4873 c-16 -4 -17 -21 -15 -221 l3 -217 135 -3 c118 -2 139 0
166 17 69 42 82 143 24 192 l-30 25 30 29 c36 34 38 65 8 113 -33 54 -84 72
-203 71 -55 -1 -108 -3 -118 -6z m231 -100 c16 -22 15 -48 -3 -66 -16 -16
-127 -33 -144 -22 -12 7 -15 98 -3 109 14 15 136 -2 150 -21z m8 -174 c17 -14
18 -61 2 -77 -7 -7 -43 -12 -90 -12 l-78 0 0 48 c0 27 3 52 8 56 10 12 141 -1
158 -15z"/>
<path d="M1726 4871 c-3 -5 -7 -78 -8 -162 -3 -168 2 -187 59 -241 87 -83 243
-54 299 55 11 20 16 70 17 185 l2 156 -27 10 c-52 18 -58 1 -58 -161 l0 -145
-29 -29 c-43 -43 -101 -41 -147 5 l-34 34 0 139 c0 95 -4 143 -12 151 -14 14
-54 16 -62 3z"/>
<path d="M2800 4869 c-43 -18 -89 -59 -116 -105 -52 -89 -29 -223 51 -293 62
-54 142 -64 243 -30 82 28 92 44 92 146 l0 83 -70 2 c-38 1 -78 2 -87 2 -10 1
-19 -10 -24 -27 -12 -43 -1 -60 32 -53 42 8 59 -2 59 -35 0 -35 -40 -59 -99
-59 -84 0 -159 111 -131 195 6 19 29 50 51 69 32 30 47 36 83 36 37 0 49 -5
80 -37 l36 -38 33 33 32 33 -30 25 c-68 58 -167 80 -235 53z"/>
<path d="M2200 4650 l0 -220 98 0 c106 1 153 13 207 54 52 40 79 99 79 171 -1
68 -17 105 -66 154 -51 51 -84 61 -208 61 l-110 0 0 -220z m234 115 c37 -24
56 -65 56 -119 0 -92 -37 -126 -142 -134 l-68 -5 0 143 0 143 63 -5 c36 -3 75
-13 91 -23z"/>
<path d="M3183 4863 c-16 -6 -18 -368 -3 -408 l10 -26 142 3 143 3 0 30 c0 36
-19 43 -132 44 l-83 1 0 50 0 50 95 0 c79 0 97 3 102 16 10 28 -11 49 -53 51
-21 2 -63 6 -92 9 l-53 6 3 51 3 52 108 3 c112 3 113 3 101 50 -6 21 -9 22
-143 21 -75 0 -142 -3 -148 -6z"/>
<path d="M3552 4854 c-5 -9 -7 -27 -4 -40 4 -23 8 -24 73 -24 l69 0 0 -161 c0
-91 4 -169 10 -180 12 -21 50 -25 68 -7 8 8 12 63 12 180 l0 167 63 3 62 3 3
38 3 37 -175 0 c-150 0 -176 -2 -184 -16z"/>
<path d="M3965 3712 c-46 -22 -132 -112 -141 -149 -4 -14 -4 -53 -1 -89 4 -50
12 -75 38 -115 35 -55 65 -73 154 -93 l50 -12 -3 -127 -4 -127 31 0 c38 0 40
8 44 155 l2 109 35 23 c69 43 93 68 112 111 24 53 26 143 5 193 -17 41 -67 93
-111 116 -48 25 -162 28 -211 5z m191 -51 c69 -42 109 -130 95 -208 -10 -51
-28 -78 -75 -111 -34 -23 -49 -27 -112 -27 -66 0 -76 3 -110 31 -57 45 -76 77
-81 131 -6 65 27 127 91 171 40 27 58 32 105 32 37 0 66 -6 87 -19z"/>
<path d="M2462 3709 c-124 -15 -245 -94 -300 -196 -66 -124 -66 -266 0 -396
70 -139 185 -216 337 -224 201 -11 367 97 432 282 31 88 31 224 0 285 -96 187
-259 273 -469 249z m169 -49 c113 -35 199 -102 247 -194 24 -46 27 -61 27
-161 0 -104 -2 -113 -29 -160 -16 -27 -55 -76 -86 -107 -50 -50 -67 -59 -144
-83 -70 -22 -100 -27 -154 -23 -201 15 -347 192 -328 398 8 95 32 153 83 210
50 56 111 96 188 122 66 23 119 22 196 -2z"/>
<path d="M2537 3466 c-4 -10 -7 -26 -7 -37 0 -12 -7 -19 -19 -19 -35 0 -71
-38 -71 -76 0 -30 6 -38 45 -62 50 -31 62 -50 38 -59 -9 -4 -19 -1 -21 5 -5
17 -62 15 -62 -1 0 -18 30 -44 55 -49 11 -2 26 -16 33 -31 17 -35 28 -34 35 2
4 21 14 31 34 36 76 19 49 111 -41 136 -36 10 -50 39 -26 54 6 3 10 -1 10 -9
0 -10 9 -16 26 -16 58 0 88 44 38 56 -18 5 -31 19 -43 47 -14 32 -19 37 -24
23z"/>
<path d="M1129 3631 c-57 -18 -135 -77 -171 -130 -28 -41 -41 -148 -29 -232
17 -121 29 -148 85 -204 62 -63 140 -95 242 -102 97 -7 158 14 229 79 97 89
141 219 115 344 -38 181 -141 255 -355 253 -49 0 -102 -4 -116 -8z m254 -23
c25 -8 54 -29 84 -62 67 -75 77 -104 78 -226 0 -95 -3 -110 -27 -155 -51 -97
-125 -150 -227 -162 -58 -7 -146 12 -164 36 -6 9 -31 28 -53 43 -76 49 -116
180 -94 304 23 134 65 181 200 225 58 19 130 18 203 -3z"/>
<path d="M1260 3440 c0 -22 -5 -30 -18 -30 -52 0 -89 -77 -59 -123 8 -12 38
-31 67 -42 53 -20 67 -35 55 -55 -5 -8 -11 -6 -19 5 -11 15 -13 15 -25 1 -12
-14 -16 -14 -34 -1 -30 21 -57 19 -57 -4 0 -23 12 -32 54 -40 22 -5 32 -13 34
-28 2 -12 9 -27 17 -33 10 -9 15 -5 20 18 4 20 16 33 38 43 27 12 33 20 35 52
3 31 -2 43 -26 65 -16 16 -47 32 -68 37 -24 6 -40 17 -42 28 -3 14 4 17 46 17
60 0 82 7 82 26 0 13 -11 18 -36 15 -7 -1 -19 17 -28 39 -19 47 -36 52 -36 10z"/>
<path d="M3588 3369 c-3 -8 -3 -93 -1 -189 4 -172 4 -175 26 -178 22 -3 22 -1
25 143 2 80 7 157 12 171 9 23 13 24 99 24 85 0 116 9 89 26 -7 5 -65 10 -129
12 -92 3 -117 2 -121 -9z"/>
<path d="M2263 2558 c-12 -13 -23 -34 -25 -48 -2 -20 -10 -26 -40 -31 -47 -7
-84 -32 -109 -72 -18 -31 -19 -49 -17 -394 l3 -362 34 -35 c18 -19 46 -40 60
-46 18 -7 139 -10 381 -8 493 4 454 -36 458 467 l3 354 -25 37 c-25 37 -88 76
-106 65 -6 -3 -13 2 -16 12 -22 71 -33 83 -73 83 -44 0 -71 -26 -71 -67 0 -13
-6 -23 -14 -23 -7 0 -27 -3 -44 -6 -25 -5 -35 -1 -62 30 -40 44 -65 45 -99 6
-18 -21 -39 -32 -67 -36 -40 -6 -42 -5 -53 27 -24 70 -77 91 -118 47z m207
-177 c0 -42 4 -53 27 -71 20 -16 36 -20 58 -16 38 8 52 27 61 81 5 38 10 44
36 49 58 11 60 10 53 -39 -7 -40 -4 -47 23 -75 34 -34 50 -37 91 -15 30 15 51
59 51 106 0 36 11 36 50 2 26 -23 32 -38 37 -85 3 -31 3 -68 -1 -82 l-6 -26
-349 0 c-191 0 -376 3 -410 6 l-61 7 0 78 c0 72 2 79 26 98 15 12 39 21 54 21
28 0 28 -1 17 -35 -9 -31 -8 -39 10 -63 29 -40 65 -49 107 -29 33 15 35 20 42
77 l7 60 38 0 39 0 0 -49z m451 -217 l36 -6 2 -234 1 -234 -36 -40 -36 -40
-339 0 c-241 0 -346 3 -364 12 -54 24 -60 52 -63 305 -3 217 -2 232 15 236 27
7 742 8 784 1z"/>
<path d="M2700 2017 c0 -36 5 -68 12 -75 12 -12 114 -17 142 -6 12 5 16 21 16
75 l0 69 -85 0 -85 0 0 -63z m154 37 c11 -29 6 -83 -10 -98 -9 -9 -32 -16 -54
-16 -63 0 -70 6 -70 64 0 29 3 56 7 59 3 4 32 7 64 7 43 0 58 -4 63 -16z"/>
<path d="M1173 2439 c-24 -4 -63 -17 -88 -28 -63 -28 -165 -132 -201 -206 -27
-56 -29 -68 -29 -175 0 -110 1 -119 33 -182 35 -71 115 -154 181 -187 58 -30
142 -44 232 -39 70 3 96 10 153 38 93 46 168 121 209 207 29 63 31 76 31 173
0 93 -3 112 -27 163 -31 67 -111 150 -185 190 -93 51 -204 67 -309 46z m223
-54 c63 -19 160 -96 196 -158 116 -198 49 -421 -156 -523 -156 -77 -324 -48
-439 75 -67 72 -90 127 -95 231 -3 69 0 95 17 140 43 111 128 194 236 232 62
21 174 23 241 3z"/>
<path d="M1169 2274 c-52 -16 -104 -66 -141 -136 -32 -61 -32 -172 1 -246 47
-105 126 -146 273 -140 108 4 141 20 190 97 47 74 61 138 48 213 -18 97 -58
160 -125 196 -30 16 -137 24 -128 10 2 -5 14 -8 26 -8 44 0 125 -47 150 -87
58 -92 64 -217 14 -292 -44 -66 -92 -92 -185 -98 -102 -7 -140 6 -195 67 -59
66 -84 142 -67 208 26 105 95 179 190 203 28 7 50 16 50 21 0 12 -49 8 -101
-8z"/>
<path d="M1267 2203 c-4 -3 -7 -16 -7 -29 0 -16 -11 -28 -37 -41 -40 -19 -57
-60 -42 -101 9 -23 76 -62 109 -62 13 0 20 -7 20 -19 0 -23 -16 -36 -25 -21
-4 6 -13 5 -26 -3 -17 -10 -22 -9 -30 6 -14 24 -59 23 -59 -1 0 -24 31 -52 58
-52 16 0 23 -8 28 -35 8 -43 22 -45 31 -5 4 22 15 35 38 44 33 14 62 64 52 90
-8 19 -48 45 -95 61 -38 13 -52 39 -33 58 7 7 16 5 30 -7 25 -23 74 -10 79 21
2 16 -4 22 -27 26 -25 5 -31 13 -37 42 -6 34 -14 42 -27 28z"/>
<path d="M3695 2425 c-5 -2 -36 -11 -67 -19 -70 -20 -157 -96 -195 -170 -30
-61 -37 -66 -85 -66 -60 0 -68 -16 -68 -141 0 -104 1 -111 25 -135 19 -18 34
-24 57 -22 28 3 33 -2 55 -42 13 -25 37 -58 53 -75 23 -24 31 -44 40 -105 15
-98 28 -110 122 -110 61 0 72 3 93 26 13 14 27 39 30 55 7 29 7 29 80 29 l73
0 12 -37 c21 -65 34 -73 116 -73 99 0 101 2 124 134 7 40 18 69 34 85 14 15
34 47 45 73 18 43 23 47 58 50 l38 3 9 88 c6 53 6 103 0 125 -8 31 -14 38 -47
45 -32 8 -42 17 -63 60 -54 105 -162 192 -270 215 -38 9 -40 8 -37 -12 3 -16
19 -27 56 -40 79 -28 161 -112 209 -213 21 -46 44 -83 49 -83 6 0 19 5 30 10
18 10 19 7 19 -52 0 -62 -10 -92 -30 -94 -5 -1 -16 -2 -23 -3 -8 0 -24 -24
-38 -52 -17 -38 -68 -108 -90 -123 0 -1 -6 -37 -12 -81 l-12 -80 -47 -3 -48
-3 -16 58 -16 58 -123 0 -122 1 -15 -56 -14 -55 -51 -3 c-62 -4 -67 3 -77 96
-5 56 -11 70 -46 109 -22 25 -48 68 -59 97 l-19 51 -46 -3 -46 -4 0 92 0 92
45 -6 44 -7 32 63 c53 108 146 185 242 203 22 4 42 16 52 31 15 24 15 24 -17
23 -18 0 -37 -2 -43 -4z"/>
<path d="M3700 2305 c-23 -24 -23 -25 -5 -45 16 -18 31 -20 122 -20 112 0 163
15 163 49 0 29 -44 41 -154 41 -96 0 -104 -1 -126 -25z"/>
<path d="M1750 532 l0 -32 808 2 807 3 0 27 0 27 -808 3 -807 3 0 -33z"/>
</g>
</svg>
